<?xml version="1.0" encoding="utf-8"?>
<!-- Generator: Adobe Illustrator 19.0.0, SVG Export Plug-In . SVG Version: 6.00 Build 0)  -->
<svg version="1.1" id="Layer_1" xmlns="http://www.w3.org/2000/svg" xmlns:xlink="http://www.w3.org/1999/xlink" x="0px" y="0px"
	 viewBox="7.2 5.7 410.1 110" style="enable-background:new 7.2 5.7 410.1 110;" xml:space="preserve">
<style type="text/css">
	.st0{fill:#393186;}
	.st1{fill:url(#XMLID_3_);}
	.st2{fill:url(#XMLID_4_);}
	.st3{fill:url(#XMLID_5_);}
	.st4{fill:url(#XMLID_6_);}
	.st5{fill:none;stroke:#231F20;stroke-width:5;stroke-miterlimit:10;}
	.st6{fill:url(#XMLID_7_);}
</style>
<g id="XMLID_11_">
	<g id="XMLID_68_">
		<path id="XMLID_74_" class="st0" d="M89.4,83V38.9c0-2.1,1.7-3.9,3.9-3.9h1.1h21.1c6.5,0,11.8,5.3,11.8,11.8v5.3
			c0,3.3-2.6,7.8-6.4,8.5c3.7,1,6.4,5.2,6.4,8.5v6.1c0,6.5-5.3,11.8-11.8,11.8h-22C91.2,87.1,89.4,85.3,89.4,83z M95.9,57.6h19.5
			c2.9,0,5.3-2.4,5.3-5.3v-6.1c0-2.9-2.4-5.3-5.3-5.3H97.2c-0.8,0-1.3,0.6-1.3,1.3V57.6z M120.7,68.9c0-2.9-2.4-5.3-5.3-5.3H95.9
			v16.2c0,0.7,0.6,1.3,1.3,1.3h18.2c2.9,0,5.3-2.4,5.3-5.3V68.9z"/>
		<path id="XMLID_78_" class="st0" d="M153.8,52.4v5c0,0.4-0.3,0.8-0.8,0.8h-8.7c-1.9,0-3.2,1.5-3.3,3.1v25.8h-5.3
			c-0.4,0-0.8-0.3-0.8-0.8V52.4h5.3c0.4,0,0.8,0.3,0.8,0.7v1.5c0.8-1.2,2.6-2.2,4.7-2.2H153.8z"/>
		
			<linearGradient id="XMLID_3_" gradientUnits="userSpaceOnUse" x1="160.3523" y1="274.85" x2="166.3781" y2="274.85" gradientTransform="matrix(1 0 0 -1 0 315)">
			<stop  offset="5.188383e-008" style="stop-color:#FF4283"/>
			<stop  offset="1" style="stop-color:#FF4236"/>
		</linearGradient>
		<path id="XMLID_82_" class="st1" d="M166.4,37.7v5.7h-5.3c-0.4,0-0.8-0.3-0.8-0.8v-5.7h5.3C166,36.9,166.4,37.3,166.4,37.7z"/>
		<path id="XMLID_81_" class="st0" d="M166.4,53.1V87h-5.3c-0.4,0-0.8-0.3-0.8-0.8V52.3h5.3C166,52.4,166.4,52.7,166.4,53.1z"/>
		<path id="XMLID_83_" class="st0" d="M174.1,66.2v-4.6c0-5.6,3.9-9.1,9.5-9.1h19v4.9c0,0.4-0.3,0.8-0.8,0.8h-18.2
			c-2.3,0-3.5,1.1-3.5,3.4v2c0,0.3,0.3,0.6,0.6,0.8l21.4,5.1c1.1,0.2,1.9,1.2,1.9,2.3V78c0,6-4.3,9.3-9.9,9.3h-19.6v-4.9
			c0-0.4,0.3-0.8,0.8-0.8h18.8c2.3,0,4.3-1.3,4.3-3.6v-3.3c0-0.3-0.3-0.6-0.6-0.7l-21.7-5.3C175,68.3,174.1,67.3,174.1,66.2z"/>
		<path id="XMLID_85_" class="st0" d="M241.5,87.1h-6c-0.5,0-0.9-0.3-1.1-0.7l-6.8-13.6h-8.4c-0.4,0-0.8,0.3-0.8,0.8v12.8
			c0,0.4-0.3,0.8-0.8,0.8h-5.3V35.8h5.3c0.4,0,0.8,0.3,0.8,0.8v31.8c0.3-0.7,1-1.2,1.9-1.2h8.5c2.3,0,4.1-1.9,4.1-4.2v-9.7
			c0-0.4,0.3-0.8,0.8-0.8h5.3v10.2c0,3.8-2.1,7.1-5.3,8.9L241.5,87.1z"/>
		<path id="XMLID_87_" class="st0" d="M246.7,75.1V36c0-0.5,0.4-0.9,0.9-0.9h5.6v40.7c0,3,2.4,5.4,5.3,5.4h21.6
			c0.5,0,0.9,0.4,0.9,0.9v5.1h-22.5C252.1,87.1,246.7,81.7,246.7,75.1z"/>
		
			<linearGradient id="XMLID_4_" gradientUnits="userSpaceOnUse" x1="286.826" y1="274.85" x2="292.8513" y2="274.85" gradientTransform="matrix(1 0 0 -1 0 315)">
			<stop  offset="5.188383e-008" style="stop-color:#FF4283"/>
			<stop  offset="1" style="stop-color:#FF4236"/>
		</linearGradient>
		<path id="XMLID_91_" class="st2" d="M292.9,37.7v5.7h-5.3c-0.4,0-0.8-0.3-0.8-0.8v-5.7h5.3C292.5,36.9,292.9,37.3,292.9,37.7z"/>
		<path id="XMLID_90_" class="st0" d="M292.9,53.1V87h-5.3c-0.4,0-0.8-0.3-0.8-0.8V52.3h5.3C292.5,52.4,292.9,52.7,292.9,53.1z"/>
		<path id="XMLID_92_" class="st0" d="M343.6,62.5V87h-5.3c-0.4,0-0.8-0.3-0.8-0.8V62.1c0-2.2-1.8-4.1-4.1-4.1h-9
			c0.7,0.4,1.2,1.1,1.2,1.9v27h-5.3c-0.4,0-0.8-0.3-0.8-0.8V58.7c0-0.4-0.3-0.8-0.8-0.8h-10.5c-0.3,0-0.6,0.3-0.7,0.6v27.6
			c0,0.4-0.3,0.8-0.8,0.8h-5V56.8c0-2.5,2-4.5,4.5-4.5h27.2C339,52.4,343.6,56.9,343.6,62.5z"/>
		<path id="XMLID_94_" class="st0" d="M380.6,62.5V77c0,5.6-4.6,10.1-10.1,10.1H354c-1.2,0-2.2-1-2.2-2.2V35.2h5.3
			c0.4,0,0.8,0.3,0.8,0.8v18.8c0.8-1.2,2.6-2.2,4.7-2.2h8C376,52.4,380.6,56.9,380.6,62.5z M374.6,62.3c0-2.3-1.8-4.1-4.1-4.1h-9.3
			c-1.8,0.2-3.2,1.7-3.3,3.5v18.9c0,0.4,0.3,0.7,0.8,0.7h11.9c2.3,0,4.1-1.8,4.1-4.1V62.3H374.6z"/>
		<path id="XMLID_97_" class="st0" d="M387.4,66.2v-4.6c0-5.6,3.9-9.1,9.5-9.1h19v4.9c0,0.4-0.3,0.8-0.8,0.8h-18.2
			c-2.3,0-3.5,1.1-3.5,3.4v2c0,0.3,0.3,0.6,0.6,0.8l21.4,5.1c1.1,0.2,1.9,1.2,1.9,2.3V78c0,6-4.3,9.3-9.9,9.3h-19.6v-4.9
			c0-0.4,0.3-0.8,0.8-0.8h18.8c2.3,0,4.3-1.3,4.3-3.6v-3.3c0-0.3-0.3-0.6-0.6-0.7l-21.7-5.3C388.2,68.3,387.4,67.3,387.4,66.2z"/>
	</g>
	<g id="XMLID_2_">
		
			<linearGradient id="XMLID_5_" gradientUnits="userSpaceOnUse" x1="8.94" y1="283" x2="65.2" y2="283" gradientTransform="matrix(1 0 0 -1 0 315)">
			<stop  offset="5.188383e-008" style="stop-color:#FF4283"/>
			<stop  offset="1" style="stop-color:#FF4236"/>
		</linearGradient>
		<path id="XMLID_33_" class="st3" d="M65.2,43.8c0,0.6-0.3,1.1-0.8,1.5l-18.9,13c-0.1-0.1-0.2-0.2-0.3-0.3L10.4,34
			C10,33.7,9.5,33.5,9,33.5v-26c0-0.7,0.4-1.3,1-1.6c0.3-0.1,0.6-0.2,0.8-0.2c0.4,0,0.7,0.1,1,0.3l52.6,36.3
			C64.9,42.6,65.2,43.2,65.2,43.8z"/>
		
			<linearGradient id="XMLID_6_" gradientUnits="userSpaceOnUse" x1="8.9" y1="225.6431" x2="65.2" y2="225.6431" gradientTransform="matrix(1 0 0 -1 0 315)">
			<stop  offset="5.188383e-008" style="stop-color:#FF4283"/>
			<stop  offset="1" style="stop-color:#FF4236"/>
		</linearGradient>
		<path id="XMLID_36_" class="st4" d="M65.2,77.6c0,0.6-0.3,1.2-0.8,1.5l-52.6,36.3c-0.6,0.4-1.3,0.4-1.9,0.1c-0.6-0.3-1-0.9-1-1.6
			V87.6c0.5-0.1,1-0.3,1.5-0.5l34.8-24c0.1,0,0.1-0.1,0.2-0.1l19.1,13.1C64.9,76.4,65.2,77,65.2,77.6z"/>
		<path id="XMLID_63_" class="st5" d="M59.2,82.1"/>
		
			<linearGradient id="XMLID_7_" gradientUnits="userSpaceOnUse" x1="7.31" y1="254.4803" x2="44.4099" y2="254.4803" gradientTransform="matrix(1 0 0 -1 0 315)">
			<stop  offset="0" style="stop-color:#3931C2"/>
			<stop  offset="0.2412" style="stop-color:#3931BA"/>
			<stop  offset="0.6214" style="stop-color:#3931A3"/>
			<stop  offset="1" style="stop-color:#393186"/>
		</linearGradient>
		<path id="XMLID_157_" class="st6" d="M44.4,60.5c0,0.3-0.2,0.6-0.4,0.8l-34.8,24c-0.4,0.3-0.9,0.3-1.3,0.1
			c-0.4-0.2-0.7-0.6-0.7-1.1V36.8c0-0.4,0.2-0.9,0.5-1.1c0.2-0.2,0.5-0.2,0.7-0.2s0.5,0.1,0.7,0.2l34.8,24
			C44.3,59.9,44.4,60.2,44.4,60.5z"/>
	</g>
</g>
</svg>
